<?xml version="1.0" standalone="no"?>
<!DOCTYPE svg PUBLIC "-//W3C//DTD SVG 20010904//EN"
 "http://www.w3.org/TR/2001/REC-SVG-20010904/DTD/svg10.dtd">
<svg version="1.0" xmlns="http://www.w3.org/2000/svg"
 width="700.000000pt" height="700.000000pt" viewBox="0 0 700.000000 700.000000"
 preserveAspectRatio="xMidYMid meet">
<metadata>
Created by potrace 1.11, written by Peter Selinger 2001-2013
</metadata>
<g transform="translate(0.000000,700.000000) scale(0.100000,-0.100000)"
fill="#000000" stroke="none">
<path d="M3452 6463 c-17 -27 -39 -64 -50 -83 -11 -19 -82 -141 -159 -270
-125 -211 -261 -443 -288 -488 -5 -10 -50 -85 -98 -167 l-88 -150 -87 -40
c-48 -22 -122 -60 -165 -84 -75 -42 -81 -43 -120 -34 -23 6 -208 59 -412 118
-203 59 -374 108 -380 110 -5 1 -18 5 -28 10 -27 11 -29 2 -13 -46 8 -24 44
-147 81 -274 37 -126 82 -279 100 -340 18 -60 41 -138 50 -171 l17 -62 -45
-88 c-25 -49 -55 -110 -66 -135 -19 -43 -30 -52 -178 -139 -87 -51 -194 -115
-238 -141 -44 -26 -95 -55 -112 -65 -29 -17 -239 -140 -538 -317 -55 -32 -111
-66 -124 -74 l-23 -15 43 -25 c66 -38 101 -59 283 -168 91 -55 186 -111 209
-125 24 -14 178 -106 343 -205 296 -176 301 -180 319 -225 10 -25 42 -94 72
-153 30 -60 52 -116 49 -125 -2 -10 -14 -48 -25 -87 -91 -307 -211 -738 -208
-741 2 -3 182 48 398 111 217 64 401 117 409 118 8 0 42 -16 75 -38 59 -37
220 -120 281 -144 25 -10 48 -42 126 -174 52 -89 177 -301 278 -472 101 -171
191 -323 200 -340 10 -16 45 -77 78 -133 59 -102 61 -103 75 -80 57 88 307
511 307 519 0 5 4 9 9 9 5 0 11 6 13 13 2 6 88 155 192 329 l190 317 65 32
c36 17 77 37 91 44 29 14 92 49 136 76 l30 18 175 -44 c96 -24 270 -69 387
-98 116 -30 212 -53 212 -51 0 2 -4 13 -10 26 -12 31 -220 672 -220 680 0 4
20 39 45 77 43 67 146 264 159 306 4 12 54 48 119 87 61 36 199 119 306 182
106 64 194 116 195 116 1 0 121 72 266 160 146 88 279 167 297 176 35 17 62
44 45 44 -5 0 -39 17 -73 38 -82 50 -1013 599 -1059 624 -93 52 -98 58 -141
145 -23 48 -66 125 -96 173 -30 49 -51 94 -49 106 2 10 41 163 86 339 44 176
83 327 85 336 2 9 8 34 14 55 6 22 11 44 11 50 0 7 -105 -23 -247 -70 -137
-45 -312 -104 -391 -129 l-143 -47 -52 30 c-29 17 -86 46 -127 66 -41 19 -85
40 -97 47 -18 10 -106 148 -213 332 -14 24 -292 491 -490 823 l-38 62 -30 -47z
m-147 -1643 c76 -37 118 -38 170 -3 52 36 100 36 153 0 25 -16 82 -36 145 -51
107 -26 139 -37 242 -89 160 -81 363 -272 389 -367 16 -55 32 -72 101 -107 40
-20 77 -44 84 -55 14 -22 63 -217 87 -343 28 -153 7 -381 -57 -605 -75 -262
-198 -445 -364 -540 l-53 -30 -4 -60 c-5 -66 -4 -65 -98 -127 -116 -76 -256
-132 -425 -169 -97 -21 -128 -23 -270 -19 -88 3 -173 7 -190 9 -16 3 -57 8
-90 11 -310 33 -482 125 -539 286 -10 30 -30 74 -43 99 -54 104 -25 110 202
40 39 -11 77 -23 85 -25 8 -2 60 -15 115 -30 109 -29 222 -38 288 -23 23 5 87
31 142 58 55 27 152 65 215 85 144 46 175 63 260 145 113 110 213 296 244 455
4 17 9 41 12 55 10 47 11 199 2 252 -32 188 -141 353 -308 468 -129 88 -215
115 -365 115 l-110 0 -116 -52 c-63 -29 -146 -61 -185 -73 -102 -31 -116 -41
-147 -95 -25 -46 -27 -57 -23 -125 9 -145 45 -254 105 -323 43 -48 130 -88
206 -95 l62 -4 16 33 c36 77 48 145 51 289 l1 55 50 -2 c193 -9 332 -100 380
-248 39 -121 22 -274 -42 -377 -56 -91 -187 -169 -323 -192 -19 -3 -46 -8 -60
-11 -43 -8 -213 -9 -259 -1 -87 16 -253 100 -341 174 -278 232 -390 518 -331
845 16 87 21 102 53 135 20 20 52 62 72 93 146 232 341 393 576 477 44 15 83
36 94 50 18 22 48 40 71 41 6 1 37 -12 70 -29z"/>
</g>
</svg>
